<?xml version="1.0" encoding="UTF-8"?><svg id="Capa_1" xmlns="http://www.w3.org/2000/svg" viewBox="0 0 417.09 280.45"><defs><style>.cls-1{fill:#e1251b;}</style></defs><g><path class="cls-1" d="M45.92,204.15l23.65-26.53h-19.67l-23.34,26.84v-56.84l-16.33,3.92v96.07H26.56v-23.4l7.86-8.31,20.59,31.71h19.39l-28.48-43.45Z"/><path class="cls-1" d="M133.05,226.16v-14.97c0-13.55-2.49-22.74-7.45-27.6-4.99-4.86-12.79-7.29-23.46-7.29-7.77,0-14.46,1.36-20.08,4.04l3.54,12.7c4.14-2.05,9.28-3.06,15.44-3.06,10.39,0,15.6,4.11,15.6,12.35-2.59-.66-4.86-.98-6.79-.98-11.21,0-19.83,2.27-25.93,6.85-6.06,4.58-9.1,10.93-9.1,19.01,0,6.95,2.15,12.28,6.47,16.04,4.29,3.79,10.23,5.65,17.75,5.65,4.01,0,7.86-.76,11.56-2.31,3.66-1.55,6.25-3.54,7.74-5.97,.66,2.02,1.93,3.92,3.79,5.68,1.86,1.74,3.98,2.59,6.35,2.59,2.15,0,4.04-.25,5.68-.79,1.64-.57,3.16-1.99,4.52-4.36-3.76-2.4-5.62-8.24-5.62-17.59Zm-16.29-4.96c0,9.79-4.9,14.72-14.68,14.72-7.3,0-10.93-3.16-10.93-9.41,0-8.46,6.44-12.7,19.36-12.7,1.39,0,3.47,.28,6.25,.85v6.54Z"/><path class="cls-1" d="M185.25,176.3c-7.58,0-13.64,2.59-18.22,7.71v-6.38h-16.36v69.98h16.36v-39.85c0-4.96,1.45-9.19,4.42-12.63,2.94-3.44,6.29-5.15,10.07-5.15,3.5,0,6.7,.95,9.63,2.87l6.92-13.99c-2.97-1.71-7.23-2.56-12.82-2.56Z"/><path class="cls-1" d="M237.2,233.23c-2.27,0-4.99,.32-8.15,.98-3.19,.66-5.46,.98-6.82,.98-3,0-4.48-.88-4.48-2.62,0-1.01,.98-1.96,3.03-2.91,2.02-.95,3.19-1.39,3.47-1.39l2.68,.38c1.99,.22,3.54,.32,4.7,.32,7.42,0,13.55-2.37,18.41-7.14s7.3-11.15,7.3-19.14c0-5.56-1.36-10.39-4.07-14.49l7.8-5.68-11.34-10.26-6.38,7.45c-4.23-2.34-9.47-3.54-15.76-3.54-8.02,0-14.78,2.46-20.24,7.36-5.5,4.89-8.27,11.08-8.27,18.6,0,9.51,4.01,16.83,11.97,22.01-2.46,1.04-4.64,2.68-6.54,4.89-1.86,2.24-2.78,4.48-2.78,6.82,0,8.05,5.62,12.1,16.83,12.1,1.83,0,4.55-.25,8.18-.66,3.63-.44,6.35-.66,8.18-.66,.28,0,.57,0,.85,.03l-.73-2.65c-.35-1.17,.92-2.18,1.99-1.55l7.64,4.42,8.49,4.9c.92,.54,.92,1.86,0,2.37l-8.49,4.93-7.64,4.39c-1.07,.63-2.34-.38-1.99-1.55l.47-1.8c-1.99,.38-4.23,.57-6.7,.57-7.01,0-13.36-2.62-19.07-7.83l-10.33,12.73c8.68,6.32,18.38,9.47,29.08,9.47,8.97,0,16.64-2.02,22.99-6.03,6.38-4.04,9.57-9.57,9.57-16.64,0-12.76-7.96-19.14-23.87-19.14Zm-17.91-40.14c2.37-2.34,5.4-3.54,9.16-3.54s6.47,1.23,8.72,3.66c2.24,2.43,3.38,5.43,3.38,8.97,0,4.26-1.04,7.61-3.16,10.04-2.08,2.46-5.05,3.66-8.94,3.66s-6.95-1.23-9.25-3.76c-2.27-2.49-3.44-5.81-3.44-9.95,0-3.69,1.2-6.73,3.54-9.09Z"/><path class="cls-1" d="M312.55,239.36c-1.83,0-4.55,.22-8.18,.66-3.63,.44-6.35,.66-8.18,.66-.28,0-.57,0-.85-.03l.73,2.62c.35,1.2-.92,2.18-1.99,1.58l-7.64-4.42-8.49-4.89c-.92-.53-.92-1.87,0-2.4l8.49-4.89,7.64-4.39c1.07-.63,2.34,.35,1.99,1.55l-.51,1.8c2.02-.38,4.26-.57,6.73-.57,1.64,0,3.73,.22,6.03,.79,3.35-1.17,6.32-3.03,8.91-5.59,4.86-4.77,7.3-11.15,7.3-19.14,0-5.56-1.36-10.39-4.04-14.49l7.77-5.68-11.3-10.26-6.41,7.45c-4.23-2.34-9.47-3.54-15.76-3.54-8.02,0-14.75,2.46-20.24,7.36-5.5,4.89-8.24,11.08-8.24,18.6,0,9.51,3.98,16.83,11.97,22.01-2.49,1.04-4.68,2.68-6.54,4.89-1.86,2.24-2.81,4.48-2.81,6.82,0,8.05,5.62,12.1,16.86,12.1,1.83,0,4.55-.25,8.18-.66,3.6-.44,6.32-.66,8.15-.66,6.76,0,10.14,2.08,10.14,6.22,0,2.43-1.52,4.36-4.58,5.75-3.06,1.39-6.92,2.08-11.62,2.08-7.01,0-13.39-2.62-19.11-7.83l-10.29,12.73c8.65,6.32,18.35,9.47,29.08,9.47,8.97,0,16.64-2.02,22.99-6.03,6.35-4.04,9.54-9.57,9.54-16.64,0-1.04-.05-2.05-.16-3.01-.45-4.05-3.07-7.71-6.97-8.91-2.35-.73-5.21-1.09-8.57-1.09Zm-26.05-46.26c2.34-2.34,5.4-3.54,9.13-3.54s6.5,1.23,8.75,3.66c2.24,2.43,3.35,5.43,3.35,8.97,0,4.26-1.04,7.61-3.13,10.04-2.08,2.46-5.09,3.66-8.97,3.66s-6.95-1.23-9.22-3.76c-2.31-2.49-3.44-5.81-3.44-9.95,0-3.69,1.17-6.73,3.54-9.09Z"/><path class="cls-1" d="M389.83,177.37v39.06c0,5.49-1.7,9.82-5.11,12.98s-8.21,4.74-14.34,4.74c-5.5,0-9.82-1.61-12.95-4.83-3.13-3.25-4.71-7.42-4.71-12.57v-39.38h-16.99v40.3c0,10.17,3,17.97,9.03,23.4,6.06,5.43,14.62,8.18,25.74,8.18s19.83-2.81,26.43-8.37c6.6-5.59,9.92-13.3,9.92-23.15v-40.36h-17.02Z"/></g><g><path class="cls-1" d="M173.94,43.58l19.14-11.03,17.21-9.89c2.42-1.42,5.27,.78,4.48,3.49l-1.14,4.05c4.55-.85,9.6-1.28,15.15-1.28,14.45,0,45.17,7.98,54.95,35.12,.46,1.27-.96,2.34-2.06,1.55-5.77-4.11-17.15-8.01-29.77-8.01-4.13,0-10.24,.5-18.42,1.49-8.18,1-14.3,1.49-18.43,1.49-.64,0-1.28,0-1.92-.07l1.64,5.9c.78,2.7-2.06,4.91-4.48,3.56l-17.21-9.96-19.14-11.03c-2.08-1.2-2.08-4.21,0-5.41Z"/><path class="cls-1" d="M243.14,103.44l-19.14,11.03-17.21,9.89c-2.42,1.42-5.27-.78-4.48-3.49l1.14-4.05c-4.55,.85-9.6,1.28-15.15,1.28-14.45,0-45.17-7.98-54.95-35.12-.46-1.27,.96-2.34,2.06-1.55,5.77,4.11,17.15,8.01,29.77,8.01,4.13,0,10.24-.5,18.42-1.49,8.18-1,14.3-1.49,18.43-1.49,.64,0,1.28,0,1.92,.07l-1.64-5.9c-.78-2.7,2.06-4.91,4.48-3.56l17.21,9.96,19.14,11.03c2.08,1.2,2.08,4.21,0,5.41Z"/></g></svg>